Coordinates
version=1
nRows=11
nColumns=63
inDegrees=yes

Units are S.I. units (second, meters, Newtons, ...)
If the header above contains a line with 'inDegrees', this indicates whether rotational values are in degrees (yes) or radians (no).

endheader
time	pelvis_tilt	pelvis_list	pelvis_rotation	pelvis_tx	pelvis_ty	pelvis_tz	hip_flexion_r	hip_adduction_r	hip_rotation_r	knee_angle_r	knee_angle_r_beta	ankle_angle_r	subtalar_angle_r	mtp_angle_r	hip_flexion_l	hip_adduction_l	hip_rotation_l	knee_angle_l	knee_angle_l_beta	ankle_angle_l	subtalar_angle_l	mtp_angle_l	L5_S1_Flex_Ext	L5_S1_Lat_Bending	L5_S1_axial_rotation	L4_L5_Flex_Ext	L4_L5_Lat_Bending	L4_L5_axial_rotation	L3_L4_Flex_Ext	L3_L4_Lat_Bending	L3_L4_axial_rotation	L2_L3_Flex_Ext	L2_L3_Lat_Bending	L2_L3_axial_rotation	L1_L2_Flex_Ext	L1_L2_Lat_Bending	L1_L2_axial_rotation	L1_T12_Flex_Ext	L1_T12_Lat_Bending	L1_T12_axial_rotation	Abs_r3	Abs_r2	Abs_r1	Abs_t1	Abs_t2	neck_flexion	neck_bending	neck_rotation	arm_flex_r	arm_add_r	arm_rot_r	elbow_flex_r	pro_sup_r	wrist_flex_r	wrist_dev_r	arm_flex_l	arm_add_l	arm_rot_l	elbow_flex_l	pro_sup_l	wrist_flex_l	wrist_dev_l
      0.00000000	      0.78932205	     -5.61739623	    101.14800054	      0.25621991	      0.82011454	      0.86851777	     -1.61879105	      0.43353682	      3.99073434	      3.47671579	      0.06068014	     21.50782512	     -5.93044919	      0.00000000	     -0.70210700	     -0.44375627	      7.45716571	      1.06918832	      0.01866086	     27.45161761	     -5.53835648	      0.00000000	     -0.05054498	      0.18426527	      0.86906402	     -0.09386708	      0.24507282	      0.92338052	     -0.08304035	      0.44802259	      0.92338052	     -0.05776786	      0.44802259	      0.76043102	     -0.04693607	      0.37575375	      0.70611452	     -0.02888140	      0.28542691	      0.65179802	     -0.36103774	      2.08444564	      4.83347336	      0.00000000	      0.00000000	     21.00082094	     -2.16129684	      0.13389869	      9.05855726	     -5.33845832	     38.35055959	     36.41016904	     83.05902854	     12.31770027	     22.12663255	     17.88634361	     -5.26734483	     65.30216825	     38.47614244	     49.43732059	     -0.48487044	     23.85893033
      0.01666667	      0.88216826	     -5.46632524	    100.39174612	      0.25626631	      0.82126719	      0.86731253	     -1.84982313	      0.51973025	      8.72666087	      2.75663899	      0.04811243	     20.68419238	    -10.38904038	      0.00000000	     -1.07820249	     -0.55452216	      8.29665900	      1.05834416	      0.01847159	     26.30726777	     -7.66083978	      0.00000000	     -0.05159583	      0.19478033	      1.03816357	     -0.09581861	      0.25905784	      1.10304879	     -0.08476678	      0.47358889	      1.10304879	     -0.05896887	      0.47358889	      0.90839312	     -0.04791188	      0.39719605	      0.84350790	     -0.02948186	      0.30171473	      0.77862267	     -0.36854383	      2.20339404	      5.77395431	      0.00000000	      0.00000000	     19.90928079	     -2.32545680	     -0.60697529	      8.84031330	     -5.70470889	     38.67528978	     36.60116069	     82.55861163	     12.17339022	     21.15356870	     17.70796598	     -5.17635546	     67.59995921	     39.10351851	     28.96107570	     -8.01646176	     22.58300699
      0.03333333	      0.88199109	     -5.34219108	    100.24185573	      0.25576811	      0.82199495	      0.86635255	     -2.03149852	      0.44187149	      9.52860249	      2.37989340	      0.04153698	     20.99963076	    -10.20195102	      0.00000000	     -1.30896933	     -0.58539049	      8.25803405	      1.13836763	      0.01986826	     25.89131627	     -7.68274385	      0.00000000	     -0.05006884	      0.19513152	      1.09046582	     -0.09298285	      0.25952492	      1.15861993	     -0.08225810	      0.47444278	      1.15861993	     -0.05722368	      0.47444278	      0.95415759	     -0.04649393	      0.39791220	      0.88600348	     -0.02860934	      0.30225873	      0.81784936	     -0.35763675	      2.20736680	      6.06484373	      0.00000000	      0.00000000	     19.18612469	     -2.24561187	     -0.92577577	      8.56143141	     -5.91051398	     38.59390014	     36.89135999	     82.48122401	     12.15676527	     20.85663129	     17.41208805	     -4.92707933	     67.20504033	     38.82999421	     28.44446643	     -8.14187428	     22.38363592
      0.05000000	      0.89649090	     -5.20816330	     99.21084882	      0.25667139	      0.82256282	      0.86554212	     -2.12953272	      0.43613342	     12.54020217	      2.14526610	      0.03744196	     20.28039625	    -12.79207499	      0.00000000	     -1.67697112	     -0.60588224	      8.32997863	      1.02377161	      0.01786819	     25.18411405	     -9.18904596	      0.00000000	     -0.05556599	      0.19918776	      1.38896296	     -0.10319159	      0.26491972	      1.47577314	     -0.09128936	      0.48430512	      1.47577314	     -0.06350637	      0.48430512	      1.21534259	     -0.05159858	      0.40618368	      1.12853240	     -0.03175040	      0.30854184	      1.04172222	     -0.39690229	      2.25325179	      7.72499529	      0.00000000	      0.00000000	     18.83104597	     -2.59103385	     -1.93117617	      8.12915373	     -6.17071628	     37.96658131	     37.17216200	     83.01124372	     11.92388754	     20.23729385	     17.82439715	     -4.74128567	     69.63565138	     39.05346033	     20.70726995	    -10.51044466	     20.51838658
      0.06666667	      0.88005375	     -5.10315541	     98.76618729	      0.25690680	      0.82279466	      0.86487020	     -2.23925127	      0.38908389	     13.33817705	      2.04925432	      0.03576624	     20.21656961	    -13.05037637	      0.00000000	     -1.90518592	     -0.60272040	      7.98268290	      0.99911659	      0.01743787	     25.02035345	     -9.25469848	      0.00000000	     -0.05633011	      0.20156412	      1.55861685	     -0.10461064	      0.26808029	      1.65603040	     -0.09254473	      0.49008301	      1.65603040	     -0.06437968	      0.49008301	      1.36378974	     -0.05230814	      0.41102956	      1.26637619	     -0.03218702	      0.31222283	      1.16896264	     -0.40236031	      2.28013369	      8.66855933	      0.00000000	      0.00000000	     18.73258014	     -2.75142167	     -2.48736078	      7.65781285	     -6.28781704	     36.96506475	     37.52158482	     83.49904190	     12.03482989	     20.47226185	     17.96999815	     -4.54769017	     70.53878167	     38.96991299	     20.00403697	    -10.49431022	     19.77055349
      0.08333333	      0.83742282	     -4.98645781	     98.39912145	      0.25716529	      0.82289603	      0.86434183	     -2.36989098	      0.33176489	     13.80024376	      2.02154406	      0.03528260	     20.16163766	    -13.10986313	      0.00000000	     -2.12454031	     -0.56690459	      7.62749809	      0.96866506	      0.01690639	     24.96940961	     -9.26280933	      0.00000000	     -0.06136600	      0.20166662	      1.71151986	     -0.11396280	      0.26821661	      1.81848985	     -0.10081820	      0.49033222	      1.81848985	     -0.07013520	      0.49033222	      1.49757987	     -0.05698447	      0.41123857	      1.39060988	     -0.03506453	      0.31238160	      1.28363989	     -0.43833121	      2.28129316	      9.51895999	      0.00000000	      0.00000000	     18.82297358	     -2.88809776	     -2.93512603	      7.25917694	     -6.38458890	     36.15096380	     37.82767299	     83.93940275	     11.98888399	     20.65607333	     18.21000963	     -4.42021521	     71.65395826	     38.83850889	     19.93153056	     -9.84605690	     18.83868391
      0.10000000	      0.83986434	     -4.89389144	     98.11229401	      0.25740743	      0.82287990	      0.86393694	     -2.45757847	      0.33260028	     14.04049286	      2.05979764	      0.03595025	     20.11455616	    -13.10500198	      0.00000000	     -2.29261000	     -0.57319717	      7.34894889	      0.94466268	      0.01648747	     24.91451436	     -9.31291855	      0.00000000	     -0.06195356	      0.20817631	      1.82882862	     -0.11505396	      0.27687450	      1.94313041	     -0.10178351	      0.50615989	      1.94313041	     -0.07080673	      0.50615989	      1.60022504	     -0.05753008	      0.42451314	      1.48592326	     -0.03540027	      0.32246511	      1.37162147	     -0.44252811	      2.35493209	     10.17139615	      0.00000000	      0.00000000	     18.97843072	     -3.00241836	     -3.15887184	      6.96553270	     -6.47330688	     35.59219108	     38.01246658	     84.27277361	     12.02604570	     20.76358584	     18.36325186	     -4.36429366	     72.57689521	     38.73233466	     20.30865499	     -8.91657078	     17.73565804
      0.11666667	      0.92240596	     -4.84570466	     97.84702172	      0.25755243	      0.82280041	      0.86362867	     -2.47317927	      0.40837716	     13.78859679	      2.12237905	      0.03704250	     20.21291226	    -12.46499773	      0.00000000	     -2.39098150	     -0.65302321	      6.28908027	      0.92133404	      0.01608031	     25.19543936	     -8.14793250	      0.00000000	     -0.05915040	      0.22561712	      1.90335252	     -0.10984821	      0.30007077	      2.02231205	     -0.09717820	      0.54856547	      2.02231205	     -0.06760300	      0.54856547	      1.66543345	     -0.05492706	      0.46007844	      1.54647392	     -0.03379854	      0.34948092	      1.42751439	     -0.42250541	      2.55222601	     10.58587571	      0.00000000	      0.00000000	     19.27778122	     -3.12057107	     -3.07926502	      6.76432393	     -6.52454655	     35.01767991	     38.10725888	     84.69406138	     12.45607938	     20.95678875	     18.19147495	     -4.36060336	     72.48268518	     38.80726146	     21.41464681	     -8.33152235	     16.54543452
      0.13333333	      1.00166711	     -4.76704802	     97.69440455	      0.25767967	      0.82274309	      0.86330328	     -2.56509505	      0.50205119	     14.25344534	      2.13128166	      0.03719788	     20.08518827	    -12.92121576	      0.00000000	     -2.51314937	     -0.72095211	      6.70427088	      0.90094390	      0.01572444	     25.06072485	     -9.03232608	      0.00000000	     -0.05905411	      0.24140034	      1.92161218	     -0.10966939	      0.32106245	      2.04171294	     -0.09702000	      0.58694078	      2.04171294	     -0.06749294	      0.58694078	      1.68141066	     -0.05483765	      0.49226356	      1.56130990	     -0.03374352	      0.37392912	      1.44120913	     -0.42181760	      2.73076888	     10.68743045	      0.00000000	      0.00000000	     19.49692539	     -3.05558148	     -2.80137275	      6.81492633	     -6.66638204	     35.48296498	     38.09769385	     84.76249163	     12.34423102	     20.67641377	     18.28361541	     -4.54895792	     73.39768077	     38.83944114	     21.93013624	     -7.28350026	     14.40976850
      0.15000000	      1.18946358	     -4.79402773	     97.87686949	      0.25719094	      0.82259102	      0.86321877	     -2.50651747	      0.67361965	     13.20773361	      2.20258664	      0.03844239	     20.48197013	    -11.62378160	      0.00000000	     -2.45867954	     -0.88862792	      6.48188795	      0.91258869	      0.01592768	     25.21167540	     -8.56017811	      0.00000000	     -0.04787577	      0.27339495	      1.81269084	     -0.08891008	      0.36361528	      1.92598402	     -0.07865509	      0.66473247	      1.92598402	     -0.05471721	      0.66473247	      1.58610448	     -0.04445744	      0.55750697	      1.47281131	     -0.02735621	      0.42348877	      1.35951813	     -0.34197180	      3.09269831	     10.08164263	      0.00000000	      0.00000000	     19.72619541	     -3.09448632	     -2.00943946	      7.09472419	     -6.79702161	     36.30494621	     38.00353227	     84.16235227	     12.58211178	     21.08487533	     17.72193686	     -4.65364621	     72.08689431	     38.98415512	     22.71307822	     -6.88207234	     13.30001976
      0.16666667	      1.24879182	     -4.84067777	     97.94930015	      0.25709914	      0.82249081	      0.86290180	     -2.49547030	      0.75388484	     13.49420580	      2.19754335	      0.03835437	     20.28599169	    -12.29973997	      0.00000000	     -2.43596259	     -0.91510744	      7.50035741	      0.88897519	      0.01551554	     24.88598356	    -10.04968852	      0.00000000	     -0.04192957	      0.28168983	      1.74306710	     -0.07786740	      0.37464748	      1.85200880	     -0.06888609	      0.68490066	      1.85200880	     -0.04792130	      0.68490066	      1.52518372	     -0.03893580	      0.57442190	      1.41624202	     -0.02395856	      0.43633755	      1.30730033	     -0.29949871	      3.18653171	      9.69441631	      0.00000000	      0.00000000	     19.73269518	     -3.07488091	     -1.63980797	      7.18829815	     -6.72211576	     36.53125315	     37.78380827	     84.25469146	     12.70589013	     20.53526081	     17.47690491	     -4.91730358	     71.82232613	     39.37439014	     23.26480195	     -7.31325604	     12.14453424
